<?xml version="1.0" encoding="UTF-8"?>
<svg id="Layer_2" data-name="Layer 2" xmlns="http://www.w3.org/2000/svg" viewBox="0 0 254.46 66.61">
  <defs>
    <style>
      .cls-1 {
        fill: #4badaf;
      }

      .cls-2 {
        fill: #324c84;
      }
    </style>
  </defs>
  <g id="_01" data-name="01">
    <g>
      <path class="cls-1" d="M1.74,36.47l1.48-1.63c2.51,2.76,5.5,4.16,8.97,4.19h.16c2.13,0,3.89-.57,5.28-1.72,1.39-1.15,2.08-2.73,2.08-4.76,0-1.5-.44-2.76-1.3-3.79-.87-1.03-1.94-1.79-3.22-2.27-1.28-.48-2.68-1.01-4.2-1.59-1.52-.57-2.92-1.15-4.2-1.72-1.28-.57-2.36-1.45-3.22-2.64-.87-1.19-1.3-2.65-1.3-4.39,0-2.21,.83-4.04,2.48-5.51,1.65-1.47,3.92-2.2,6.8-2.2,1.71,0,3.45,.41,5.22,1.23,1.78,.82,3.23,2.13,4.39,3.92l-1.68,1.41c-.8-1.26-1.9-2.27-3.3-3.02-1.4-.75-2.88-1.14-4.42-1.17h-.2c-2.08,0-3.78,.49-5.08,1.48-1.31,.99-1.96,2.27-1.96,3.86,0,1.18,.32,2.18,.96,3,.64,.82,1.47,1.48,2.5,1.98,1.03,.5,2.16,.96,3.4,1.37,1.24,.41,2.48,.86,3.72,1.34,1.25,.48,2.37,1.06,3.4,1.72,1.03,.66,1.86,1.58,2.5,2.76,.64,1.18,.96,2.56,.96,4.14,0,2.76-.92,4.95-2.76,6.55-1.84,1.6-4.15,2.4-6.93,2.4h-.16c-4.03-.06-7.49-1.7-10.37-4.94m27.32,4.94h-2.66L38.56,8.63h2.71l12.17,32.78h-2.62l-3.34-8.63h-15.13l-3.29,8.63Zm10.84-29.41l-6.73,18.31h13.55l-6.82-18.31Zm18.03-3.37h2.37V28.84c0,3.32,.87,5.88,2.6,7.68,1.74,1.8,3.94,2.69,6.63,2.69s5.01-.9,6.8-2.69c1.79-1.8,2.69-4.36,2.69-7.68V8.63h2.41V28.88c0,3.95-1.12,7.09-3.35,9.41-2.23,2.32-5.03,3.48-8.39,3.48s-6.23-1.16-8.45-3.48c-2.22-2.32-3.32-5.46-3.32-9.41V8.63Zm37.92,0c5,0,9.11,1.58,12.35,4.74,3.23,3.16,4.85,7.03,4.85,11.61s-1.58,8.57-4.74,11.72c-3.16,3.14-7.31,4.71-12.46,4.71h-7.37V8.63h7.37Zm-4.85,2.51v27.75h4.85c4.46,0,8.01-1.34,10.64-4.02,2.64-2.68,3.96-6.01,3.96-9.99,0-3.77-1.36-7-4.09-9.7-2.72-2.69-6.22-4.04-10.5-4.04h-4.85Zm31.27,30.26h-2.51V8.63h2.51V41.41Z"/>
      <path class="cls-2" d="M159.72,33.53v7.88h-21.45V8.43h21.45v7.61h-14.08v4.78h13.34v7.32h-13.34v5.39h14.08Zm51.9,7.88h-7.73V8.43h7.73V41.41ZM254.46,8.43V41.41h-7.66V17.83l-7.76,23.58h-6.57l-7.54-23.58v23.58h-7.13V8.43h10.9l7.52,21.62,7.3-21.62h10.95Z"/>
      <path class="cls-1" d="M7.79,65.81c0,.22-.11,.41-.32,.57-.21,.15-.47,.23-.77,.23s-.56-.08-.77-.23c-.21-.15-.32-.34-.32-.57s.11-.41,.32-.57c.21-.15,.47-.23,.77-.23s.56,.08,.77,.23c.21,.15,.32,.34,.32,.57m-.12-9.9c.38-.24,.83-.35,1.34-.35,.45,0,.91,.07,1.38,.22l.45-1.79c-.82-.26-1.56-.39-2.25-.39-.5,0-.96,.07-1.38,.21-.42,.14-.79,.35-1.09,.64-.31,.29-.55,.66-.73,1.1-.18,.45-.27,.98-.27,1.6v1.58c0,.33,.12,.61,.35,.84s.51,.35,.84,.35h2.56v.39c0,.43-.15,.8-.46,1.11-.31,.31-.68,.46-1.11,.46H3.55c-.43,0-.8-.15-1.11-.46-.31-.31-.46-.68-.46-1.11v-2.17c0-.11-.04-.2-.12-.28s-.17-.12-.28-.12H.39c-.11,0-.2,.04-.28,.12-.08,.08-.12,.17-.12,.28v2.17c0,.49,.09,.95,.28,1.38,.18,.43,.44,.81,.76,1.13,.32,.32,.7,.58,1.13,.76,.43,.18,.89,.28,1.38,.28h3.75c.49,0,.95-.09,1.38-.28,.43-.18,.81-.44,1.13-.76,.32-.32,.57-.7,.76-1.13,.18-.43,.28-.89,.28-1.38v-.79c0-.43-.15-.81-.46-1.11-.31-.31-.68-.46-1.11-.46h-2.17v-.79c0-.58,.19-.99,.57-1.22m-2.76,9.34c-.21-.15-.47-.23-.77-.23s-.56,.08-.77,.23c-.21,.15-.32,.34-.32,.57s.11,.41,.32,.57c.21,.15,.47,.23,.77,.23s.56-.08,.77-.23c.21-.15,.32-.34,.32-.57s-.11-.41-.32-.57m13.02-10.42c-.31-.29-.68-.5-1.1-.64-.43-.14-.88-.21-1.37-.21-.68,0-1.43,.13-2.25,.39l.45,1.79c.46-.14,.92-.22,1.38-.22,.51,0,.96,.12,1.34,.35,.38,.24,.57,.64,.57,1.22v1.77h-4.14v1.97h5.72c.11,0,.2-.04,.28-.12,.08-.08,.12-.17,.12-.28v-3.35c0-.62-.09-1.15-.27-1.6-.18-.45-.42-.81-.73-1.1m49.98-4.28c.08,.08,.12,.17,.12,.28v8.87c0,.43-.15,.81-.46,1.11s-.68,.46-1.11,.46H27.6c0,.59-.08,1.1-.23,1.53-.15,.43-.36,.78-.62,1.05-.26,.27-.57,.47-.93,.6-.35,.13-.74,.2-1.16,.2-.46,0-.94-.07-1.45-.21-.51-.14-1.02-.34-1.53-.6l.57-1.5c.29,.12,.6,.23,.95,.33,.34,.1,.68,.15,1.01,.15,.39,0,.73-.11,1.01-.33,.28-.22,.41-.62,.41-1.21h-2.36c-.55,0-1.02-.19-1.4-.57-.38-.38-.57-.85-.57-1.4v-1.18c0-.58,.09-1.08,.27-1.5,.18-.42,.42-.77,.72-1.04s.65-.48,1.05-.61c.4-.13,.82-.2,1.27-.2,.5,0,1.01,.08,1.53,.25,.52,.16,1.01,.41,1.47,.74v3.55h3.63l-1.04-1.81c-.07-.13-.12-.28-.16-.44-.04-.16-.06-.33-.06-.48,0-.22,.03-.44,.1-.66s.16-.41,.3-.57c.13-.16,.3-.3,.49-.4,.2-.1,.43-.16,.69-.16h4.34c.26,0,.49,.05,.69,.16,.2,.11,.36,.24,.49,.4,.13,.16,.23,.36,.3,.57,.07,.22,.1,.44,.1,.66,0,.16-.02,.32-.05,.47-.03,.16-.09,.31-.17,.45l-1.05,1.81h16.85v-4.14c0-.11,.04-.2,.12-.28,.08-.08,.17-.12,.28-.12h1.18c.11,0,.2,.04,.28,.12,.08,.08,.12,.17,.12,.28v4.14h1.97v-4.14c0-.11,.04-.2,.12-.28,.08-.08,.17-.12,.28-.12h1.18c.11,0,.2,.04,.28,.12,.08,.08,.12,.17,.12,.28v4.14h1.97v-4.14c0-.11,.04-.2,.12-.28,.08-.08,.17-.12,.28-.12h1.18c.11,0,.2,.04,.28,.12,.08,.08,.12,.17,.12,.28v4.14h3.15v-8.48c0-.11,.04-.2,.12-.28,.08-.08,.17-.12,.28-.12h1.18c.11,0,.2,.04,.28,.12m-42.28,6.37c-.34-.12-.68-.18-1.03-.18s-.67,.11-.94,.34c-.27,.22-.4,.57-.4,1.04v1.18h2.36v-2.38Zm9.78-.18h-3.39l1.48,2.56h.41l1.5-2.56Zm36.56-6.31h-1.18c-.11,0-.2,.04-.28,.12-.08,.08-.12,.17-.12,.28v10.05c0,.11,.04,.2,.12,.28s.17,.12,.28,.12h1.18c.11,0,.2-.04,.28-.12,.08-.08,.12-.17,.12-.28v-10.05c0-.11-.04-.2-.12-.28-.08-.08-.17-.12-.28-.12m10.07,4.45c-.31-.29-.68-.5-1.1-.64-.43-.14-.88-.21-1.37-.21-.68,0-1.43,.13-2.25,.39l.45,1.79c.46-.14,.92-.22,1.38-.22,.51,0,.96,.12,1.34,.36,.38,.24,.57,.64,.57,1.22v1.77h-4.14v1.97h5.72c.11,0,.2-.04,.28-.12,.08-.08,.12-.17,.12-.28v-3.35c0-.62-.09-1.15-.27-1.6-.18-.45-.42-.81-.73-1.1m5.21,6.33c.08-.08,.12-.17,.12-.28v-10.05c0-.1-.04-.2-.12-.28-.08-.08-.17-.12-.28-.12h-1.18c-.11,0-.2,.04-.28,.12-.08,.08-.12,.17-.12,.28v10.05c0,.11,.04,.2,.12,.28,.08,.08,.17,.12,.28,.12h1.18c.11,0,.2-.04,.28-.12m10.45,1.56c-.21-.17-.47-.26-.77-.26s-.56,.09-.77,.26c-.21,.17-.32,.38-.32,.63s.11,.46,.32,.63c.21,.17,.47,.26,.77,.26s.56-.09,.77-.26c.21-.17,.32-.38,.32-.63s-.11-.46-.32-.63m-2.56,0c-.21-.17-.47-.26-.77-.26s-.56,.09-.77,.26c-.21,.17-.32,.38-.32,.63s.11,.46,.32,.63c.21,.17,.47,.26,.77,.26s.56-.09,.77-.26c.21-.17,.32-.38,.32-.63s-.11-.46-.32-.63m7.04-9.58c.21,.17,.47,.26,.77,.26s.56-.09,.77-.26c.21-.17,.32-.38,.32-.63s-.11-.46-.32-.63c-.21-.17-.47-.26-.77-.26s-.56,.08-.77,.26c-.21,.17-.32,.38-.32,.63s.1,.46,.32,.63m-2.56,0c.21,.17,.47,.26,.77,.26s.56-.09,.77-.26c.21-.17,.32-.38,.32-.63s-.11-.46-.32-.63c-.21-.17-.47-.26-.77-.26s-.56,.08-.77,.26c-.21,.17-.32,.38-.32,.63s.11,.46,.32,.63m29.26,1.64h-1.18c-.11,0-.2,.04-.28,.12-.08,.08-.12,.17-.12,.28v4.14h-1.97v-4.14c0-.1-.04-.2-.12-.28-.08-.08-.17-.12-.28-.12h-1.18c-.11,0-.2,.04-.28,.12-.08,.08-.12,.17-.12,.28v4.14h-1.97v-4.14c0-.1-.04-.2-.12-.28-.08-.08-.17-.12-.28-.12h-1.18c-.11,0-.2,.04-.28,.12-.08,.08-.12,.17-.12,.28v4.14h-16.27v-4.14c0-.1-.04-.2-.12-.28-.08-.08-.17-.12-.28-.12h-1.18c-.1,0-.2,.04-.28,.12-.08,.08-.12,.17-.12,.28v4.14h-3.94v-4.14c0-.1-.04-.2-.12-.28-.08-.08-.17-.12-.28-.12h-1.18c-.11,0-.2,.04-.28,.12-.08,.08-.12,.17-.12,.28v4.14h-3.15v-4.14c0-.1-.04-.2-.12-.28-.08-.08-.17-.12-.28-.12h-1.18c-.11,0-.2,.04-.28,.12-.08,.08-.12,.17-.12,.28v6.11c0,.6-.13,1.02-.39,1.23-.26,.22-.58,.33-.97,.33-.34,0-.69-.06-1.04-.18-.35-.12-.68-.23-.97-.34l-.57,1.52c.51,.26,1.02,.46,1.53,.6,.51,.14,.99,.21,1.45,.21,.42,0,.81-.07,1.16-.2,.36-.13,.66-.33,.93-.6,.26-.27,.47-.62,.62-1.05,.15-.43,.23-.94,.23-1.53h35.59c.43,0,.8-.15,1.11-.46s.46-.68,.46-1.11v-4.53c0-.1-.04-.2-.12-.28-.08-.08-.17-.12-.28-.12m9.26-4.34h-1.18c-.11,0-.2,.04-.28,.12-.08,.08-.12,.17-.12,.28v9.46c0,.21-.05,.39-.15,.53-.1,.14-.23,.26-.39,.34-.16,.08-.35,.15-.56,.18-.21,.03-.43,.05-.65,.05-.38,0-.76-.04-1.13-.11-.37-.07-.66-.14-.86-.21l-.51,1.7c.42,.17,.87,.3,1.36,.39,.49,.09,.96,.14,1.42,.14s.9-.05,1.31-.16c.41-.11,.78-.28,1.09-.51,.32-.24,.57-.54,.76-.93,.19-.38,.29-.85,.29-1.42v-9.46c0-.1-.04-.2-.12-.28-.08-.08-.17-.12-.28-.12m-5.23,9.66c.1,.07,.2,.1,.31,.1h1.56l-.98-8.38c-.03-.13-.09-.23-.18-.3-.09-.07-.19-.1-.3-.1h-1.56l.99,8.38c.01,.13,.07,.23,.17,.3m9.57-9.66h-1.18c-.11,0-.2,.04-.28,.12-.08,.08-.12,.17-.12,.28v10.05c0,.11,.04,.2,.12,.28,.08,.08,.17,.12,.28,.12h1.18c.11,0,.2-.04,.28-.12,.08-.08,.12-.17,.12-.28v-10.05c0-.1-.04-.2-.12-.28-.08-.08-.17-.12-.28-.12m9.77,4.58c.52,.16,1.01,.41,1.47,.74v5.52c0,.59-.08,1.1-.23,1.53-.15,.43-.36,.78-.62,1.05-.26,.27-.57,.47-.93,.6-.35,.13-.74,.2-1.16,.2-.46,0-.94-.07-1.45-.21-.51-.14-1.02-.34-1.53-.6l.57-1.5c.29,.12,.6,.23,.95,.32,.34,.1,.68,.15,1.01,.15,.39,0,.73-.11,1.01-.33,.28-.22,.41-.62,.41-1.21h-2.37c-.55,0-1.02-.19-1.4-.57-.38-.38-.57-.85-.57-1.4v-1.18c0-.58,.09-1.08,.27-1.5,.18-.42,.42-.77,.72-1.05,.3-.28,.65-.48,1.05-.61,.4-.13,.82-.2,1.27-.2,.5,0,1.01,.08,1.53,.25m-.5,1.9c-.34-.12-.68-.18-1.03-.18s-.67,.11-.94,.34c-.27,.22-.4,.57-.4,1.04v1.18h2.37v-2.38Zm14.19,4.36c.43,0,.81-.15,1.11-.46,.31-.31,.46-.68,.46-1.11v-4.53c0-.1-.04-.2-.12-.28-.08-.08-.17-.12-.28-.12h-1.18c-.11,0-.2,.04-.28,.12-.08,.08-.12,.17-.12,.28v4.14h-3.15v-4.14c0-.1-.04-.2-.12-.28-.08-.08-.17-.12-.28-.12h-1.18c-.11,0-.2,.04-.28,.12-.08,.08-.12,.17-.12,.28v6.11c0,.6-.13,1.02-.39,1.23s-.58,.33-.97,.33c-.34,0-.69-.06-1.05-.18-.35-.12-.68-.23-.97-.34l-.57,1.52c.51,.26,1.02,.46,1.53,.6,.51,.14,.99,.21,1.45,.21,.42,0,.81-.07,1.16-.2,.36-.13,.66-.33,.93-.6,.26-.27,.47-.62,.62-1.05,.15-.43,.23-.94,.23-1.53h3.55Zm1.66,1.44c-.21-.17-.47-.26-.77-.26s-.56,.09-.77,.26c-.21,.17-.32,.38-.32,.63s.11,.46,.32,.63c.21,.17,.47,.26,.77,.26s.56-.09,.77-.26c.21-.17,.32-.38,.32-.63s-.11-.46-.32-.63m-2.56,0c-.21-.17-.47-.26-.77-.26s-.56,.09-.77,.26c-.21,.17-.32,.38-.32,.63s.11,.46,.32,.63c.21,.17,.47,.26,.77,.26s.56-.09,.77-.26c.21-.17,.32-.38,.32-.63s-.11-.46-.32-.63m39.73-9.58c.21,.17,.47,.26,.77,.26s.56-.09,.77-.26c.21-.17,.32-.38,.32-.63s-.11-.46-.32-.63c-.21-.17-.47-.26-.77-.26s-.56,.08-.77,.26c-.21,.17-.32,.38-.32,.63s.11,.46,.32,.63m-2.56,0c.21,.17,.47,.26,.77,.26s.56-.09,.77-.26c.21-.17,.32-.38,.32-.63s-.11-.46-.32-.63c-.21-.17-.47-.26-.77-.26s-.56,.08-.77,.26c-.21,.17-.32,.38-.32,.63s.11,.46,.32,.63m8.53-2.58c.08,.08,.12,.17,.12,.28v8.87c0,.43-.15,.81-.46,1.11-.31,.31-.68,.46-1.11,.46h-39.79v-1.97h4.14v-1.77c0-.58-.19-.98-.57-1.22-.38-.24-.83-.36-1.34-.36-.46,0-.92,.07-1.38,.22l-.45-1.79c.81-.26,1.56-.39,2.25-.39,.49,0,.94,.07,1.37,.21,.43,.14,.79,.35,1.1,.64,.31,.29,.55,.66,.73,1.1,.18,.45,.27,.98,.27,1.6v1.77h15.15v-4.14c0-.1,.04-.2,.12-.28,.08-.08,.17-.12,.28-.12h1.18c.11,0,.2,.04,.28,.12,.08,.08,.12,.17,.12,.28v1.97l2.07-1.77c.21-.18,.43-.33,.67-.43,.24-.11,.51-.16,.81-.16h2.76c.43,0,.8,.15,1.11,.46,.31,.31,.46,.68,.46,1.11v2.96h3.15v-4.14c0-.1,.04-.2,.12-.28,.08-.08,.17-.12,.28-.12h1.18c.11,0,.2,.04,.28,.12,.08,.08,.12,.17,.12,.28v4.14h3.15v-8.48c0-.1,.04-.2,.12-.28,.08-.08,.17-.12,.28-.12h1.18c.11,0,.2,.04,.28,.12m-12.1,6.19h-2.44l-3.47,2.56h5.91v-2.56Zm16.16-6.31h-1.18c-.11,0-.2,.04-.28,.12-.08,.08-.12,.17-.12,.28v10.05c0,.11,.04,.2,.12,.28,.08,.08,.17,.12,.28,.12h1.18c.11,0,.2-.04,.28-.12,.08-.08,.12-.17,.12-.28v-10.05c0-.1-.04-.2-.12-.28-.08-.08-.17-.12-.28-.12m12.24,4.73c0-1-.56-1.52-1.68-1.58l1.46-1.42-.69-1.04-2.42,2.44,.67,1.1c.17-.07,.35-.1,.53-.1,.2,0,.4,.05,.62,.15,.22,.1,.33,.28,.33,.54v.3h-2.17v1.18h3.35v-1.58Zm19.01-2.03c.21,.17,.47,.26,.77,.26s.56-.09,.77-.26c.21-.17,.32-.38,.32-.63s-.11-.46-.32-.63c-.21-.17-.47-.26-.77-.26s-.56,.08-.77,.26c-.21,.17-.32,.38-.32,.63s.11,.46,.32,.63m6.78,9.58c-.21-.17-.47-.26-.77-.26s-.56,.09-.77,.26c-.21,.17-.32,.38-.32,.63s.11,.46,.32,.63c.21,.17,.47,.26,.77,.26s.56-.09,.77-.26c.21-.17,.32-.38,.32-.63s-.11-.46-.32-.63m1.06-7.82c-.08-.08-.17-.12-.28-.12h-1.18c-.11,0-.2,.04-.28,.12-.08,.08-.12,.17-.12,.28v4.14h-4.24v-4.14c0-.1-.04-.2-.12-.28-.08-.08-.17-.12-.28-.12h-1.18c-.11,0-.2,.04-.28,.12-.08,.08-.12,.17-.12,.28v4.14h-15.05v-8.48c0-.1-.04-.2-.12-.28-.08-.08-.17-.12-.28-.12h-1.18c-.11,0-.2,.04-.28,.12-.08,.08-.12,.17-.12,.28v8.48h-6.9v-3.55c0-.11-.04-.2-.12-.28-.08-.08-.17-.12-.28-.12h-1.18c-.11,0-.2,.04-.28,.12s-.12,.17-.12,.28v3.94c0,.43,.15,.81,.46,1.11,.31,.31,.68,.46,1.11,.46h28.26v-.08c.1,.04,.19,.08,.3,.08h2.36c.43,0,.81-.15,1.11-.46,.31-.31,.46-.68,.46-1.11v-4.53c0-.1-.04-.2-.12-.28"/>
      <path class="cls-1" d="M180.75,25.46l-17.44,24.38h-2.28s17.81-24.92,17.81-24.92L161.04,.01h.02s2.26-.01,2.26-.01l17.44,24.38c.23,.33,.23,.76,0,1.08"/>
      <path class="cls-2" d="M187.15,24.92l11.76,16.48h-10.64l-6.45-8.97-4.17,5.88-3.12,4.41h-1.51s4.64-6.5,4.64-6.5l7.61-10.68c.26-.37,.26-.86,0-1.23l-7.61-10.69-4.64-6.51h1.51s3.12,4.42,3.12,4.42l4.17,5.88,6.45-8.98h10.64l-11.76,16.49Z"/>
      <path class="cls-1" d="M174.04,25.26l-1.61,2.26-5.75,8.06h-1.42l7.17-10.07,.42-.6-.42-.6-7.19-10.09h1.43l5.76,8.09,1.61,2.26c.15,.2,.15,.48,0,.67"/>
    </g>
  </g>
</svg>